<svg width="488.3" height="488.3" xmlns="http://www.w3.org/2000/svg">

 <g>
  <title>background</title>
  <rect fill="none" id="canvas_background" height="402" width="582" y="-1" x="-1"/>
 </g>
 <g>
  <title>Layer 1</title>
  <g id="svg_1">
   <g id="svg_2">
    <path stroke="#f2f229" fill="#f85e28" id="svg_3" d="m314.25,86.4l-227,0c-21.3,0 -38.6,17.3 -38.6,38.6l0,325.7c0,21.3 17.3,38.6 38.6,38.6l227,0c21.3,0 38.6,-17.3 38.6,-38.6l0,-325.7c-0.1,-21.3 -17.4,-38.6 -38.6,-38.6zm11.5,364.2c0,6.4 -5.2,11.6 -11.6,11.6l-227,0c-6.4,0 -11.6,-5.2 -11.6,-11.6l0,-325.6c0,-6.4 5.2,-11.6 11.6,-11.6l227,0c6.4,0 11.6,5.2 11.6,11.6l0,325.6z"/>
    <path stroke="#f2f229" fill="#f85e28" id="svg_4" d="m401.05,1l-227,0c-21.3,0 -38.6,17.3 -38.6,38.6c0,7.5 6,13.5 13.5,13.5s13.5,-6 13.5,-13.5c0,-6.4 5.2,-11.6 11.6,-11.6l227,0c6.4,0 11.6,5.2 11.6,11.6l0,325.7c0,6.4 -5.2,11.6 -11.6,11.6c-7.5,0 -13.5,6 -13.5,13.5s6,13.5 13.5,13.5c21.3,0 38.6,-17.3 38.6,-38.6l0,-325.7c0,-21.3 -17.3,-38.6 -38.6,-38.6z"/>
   </g>
  </g>
  <g id="svg_5"/>
  <g id="svg_6"/>
  <g id="svg_7"/>
  <g id="svg_8"/>
  <g id="svg_9"/>
  <g id="svg_10"/>
  <g id="svg_11"/>
  <g id="svg_12"/>
  <g id="svg_13"/>
  <g id="svg_14"/>
  <g id="svg_15"/>
  <g id="svg_16"/>
  <g id="svg_17"/>
  <g id="svg_18"/>
  <g id="svg_19"/>
 </g>
</svg>