<svg width="430.117" height="430.118" xmlns="http://www.w3.org/2000/svg">

 <g>
  <title>background</title>
  <rect fill="none" id="canvas_background" height="402" width="582" y="-1" x="-1"/>
 </g>
 <g>
  <title>Layer 1</title>
  <g id="svg_1">
   <path stroke-width="0" stroke="#f85e28" fill="#00887a" d="m215.05,0c-118.776,0.009 -215.05,96.289 -215.05,215.068c0,118.758 96.274,215.049 215.05,215.049c118.776,0 215.054,-96.291 215.067,-215.049c-0.013,-118.779 -96.291,-215.059 -215.067,-215.068zm131.769,111.506c20.983,26.645 34.121,59.638 35.778,95.668c-24.278,-5.153 -47.217,-7.661 -68.602,-7.661l0,-0.005l-0.158,0c-17.217,0 -33.375,1.563 -48.604,4.264c-3.701,-9.071 -7.453,-17.784 -11.233,-26.129c33.916,-14.876 66.47,-36.058 92.819,-66.137zm-131.769,-64.226c39.576,0 75.882,13.836 104.626,36.87c-21.996,26.334 -51.029,45.406 -82.393,58.873c-22.038,-42.615 -43.333,-73.101 -57.89,-91.739c11.523,-2.557 23.417,-4.004 35.657,-4.004zm-74.109,17.49c11.646,13.756 34.963,44.013 59.867,91.253c-50.649,15.077 -101.651,18.619 -132.51,18.61c-0.88,0 -1.75,0 -2.604,-0.009l-0.028,0c-5.197,0 -9.666,-0.082 -13.397,-0.196c12.039,-48.174 45.042,-88.071 88.672,-109.658zm-93.675,150.298c0,-0.789 0.028,-1.591 0.075,-2.417c4.791,0.177 10.935,0.329 18.33,0.329l0.042,0c33.727,-0.22 92.614,-3.038 152.292,-21.879c3.253,7.113 6.473,14.519 9.656,22.208c-39.853,13.329 -71.241,34.564 -94.457,55.711c-22.35,20.357 -37.45,40.52 -46.273,53.98c-24.689,-29.231 -39.652,-66.796 -39.665,-107.932zm167.784,167.791c-37.339,0 -71.754,-12.349 -99.673,-33.07c5.934,-9.773 18.657,-28.535 38.917,-47.922c20.845,-19.975 49.62,-40.538 87.19,-52.775c12.77,35.797 24.325,76.718 33.127,122.781c-18.543,7.061 -38.579,10.986 -59.561,10.986zm94.961,-29.794c-8.513,-41.659 -19.215,-79.224 -30.966,-112.748c10.897,-1.563 22.336,-2.445 34.41,-2.445l0.434,0l0.028,0l0.028,0c20.012,0 42.003,2.487 65.852,7.906c-8.256,44.365 -33.953,82.574 -69.786,107.287z" id="Dribbble"/>
  </g>
  <g id="svg_2"/>
  <g id="svg_3"/>
  <g id="svg_4"/>
  <g id="svg_5"/>
  <g id="svg_6"/>
  <g id="svg_7"/>
  <g id="svg_8"/>
  <g id="svg_9"/>
  <g id="svg_10"/>
  <g id="svg_11"/>
  <g id="svg_12"/>
  <g id="svg_13"/>
  <g id="svg_14"/>
  <g id="svg_15"/>
  <g id="svg_16"/>
 </g>
</svg>