<svg width="469.331" height="469.331" xmlns="http://www.w3.org/2000/svg">

 <g>
  <title>background</title>
  <rect fill="none" id="canvas_background" height="402" width="582" y="-1" x="-1"/>
 </g>
 <g>
  <title>Layer 1</title>
  <g id="svg_1">
   <path stroke="#f2f229" fill="#f85e28" id="svg_2" d="m438.931,30.403c-40.4,-40.5 -106.1,-40.5 -146.5,0l-268.6,268.5c-2.1,2.1 -3.4,4.8 -3.8,7.7l-19.9,147.4c-0.6,4.2 0.9,8.4 3.8,11.3c2.5,2.5 6,4 9.5,4c0.6,0 1.2,0 1.8,-0.1l88.8,-12c7.4,-1 12.6,-7.8 11.6,-15.2c-1,-7.4 -7.8,-12.6 -15.2,-11.6l-71.2,9.6l13.9,-102.8l108.2,108.2c2.5,2.5 6,4 9.5,4s7,-1.4 9.5,-4l268.6,-268.5c19.6,-19.6 30.4,-45.6 30.4,-73.3s-10.8,-53.7 -30.4,-73.2zm-141.3,33l45.1,45.1l-245.1,245.1l-45.1,-45.1l245.1,-245.1zm-136.7,353.4l-44.1,-44.1l245.1,-245.1l44.1,44.1l-245.1,245.1zm263.9,-264.4l-107.9,-107.9c13.7,-11.3 30.8,-17.5 48.8,-17.5c20.5,0 39.7,8 54.2,22.4s22.4,33.7 22.4,54.2c0,18.1 -6.2,35.1 -17.5,48.8z"/>
  </g>
  <g id="svg_3"/>
  <g id="svg_4"/>
  <g id="svg_5"/>
  <g id="svg_6"/>
  <g id="svg_7"/>
  <g id="svg_8"/>
  <g id="svg_9"/>
  <g id="svg_10"/>
  <g id="svg_11"/>
  <g id="svg_12"/>
  <g id="svg_13"/>
  <g id="svg_14"/>
  <g id="svg_15"/>
  <g id="svg_16"/>
  <g id="svg_17"/>
 </g>
</svg>