<svg width="90" height="90" xmlns="http://www.w3.org/2000/svg">

 <g>
  <title>background</title>
  <rect fill="none" id="canvas_background" height="402" width="582" y="-1" x="-1"/>
 </g>
 <g>
  <title>Layer 1</title>
  <g id="svg_1">
   <path stroke-width="0" stroke="#f85e28" fill="#00887a" d="m90,16.001c0,-7.882 -7.116,-15.001 -15,-15.001l-60,0c-7.884,0 -15,7.119 -15,15.001l0,59.998c0,7.882 7.116,15.001 15.001,15.001l29.999,0l0,-34l-11,0l0,-15l11,0l0,-5.844c0,-10.079 7.568,-19.156 16.875,-19.156l12.125,0l0,15l-12.125,0c-1.327,0 -2.875,1.611 -2.875,4.024l0,5.976l15,0l0,15l-15,0l0,34l16,0c7.884,0 15,-7.119 15,-15.001l0,-59.998z" id="Facebook__x28_alt_x29_"/>
  </g>
  <g id="svg_2"/>
  <g id="svg_3"/>
  <g id="svg_4"/>
  <g id="svg_5"/>
  <g id="svg_6"/>
  <g id="svg_7"/>
  <g id="svg_8"/>
  <g id="svg_9"/>
  <g id="svg_10"/>
  <g id="svg_11"/>
  <g id="svg_12"/>
  <g id="svg_13"/>
  <g id="svg_14"/>
  <g id="svg_15"/>
  <g id="svg_16"/>
 </g>
</svg>