<svg width="487.803" height="487.803" xmlns="http://www.w3.org/2000/svg">

 <g>
  <title>background</title>
  <rect fill="none" id="canvas_background" height="402" width="582" y="-1" x="-1"/>
 </g>
 <g>
  <title>Layer 1</title>
  <g id="svg_1">
   <path stroke="#f2f229" fill="#f85e28" id="svg_2" d="m480.6,296.133l-64.6,-205.1c-9.1,-29.9 -40.9,-46.8 -70.8,-37.7c-7.1,2.2 -11.2,9.7 -9,16.8s9.7,11.2 16.8,9c15.7,-4.8 32.3,4.1 37.1,19.8l0,0.1l46.2,146.9c-14.7,-8.3 -31.6,-13 -49.6,-13c-51.8,0 -94.6,39.2 -100.4,89.4l-85,0c-6.6,-49.4 -49,-87.6 -100.2,-87.6c-18.1,0 -35.1,4.8 -49.8,13.1l46.8,-148.8l0,-0.1c4.8,-15.7 21.4,-24.6 37.1,-19.8c7.1,2.2 14.7,-1.9 16.8,-9c2.2,-7.1 -1.9,-14.7 -9,-16.8c-29.9,-9.1 -61.6,7.8 -70.8,37.7l-64.4,205.3c-0.2,0.6 -0.3,1.1 -0.4,1.7c-4.7,11.7 -7.4,24.5 -7.4,37.8c0,55.7 45.4,101.1 101.1,101.1c51.2,0 93.6,-38.2 100.2,-87.6l85.5,0c7.4,48.5 49.4,85.8 99.9,85.8c55.7,0 101.1,-45.4 101.1,-101.1c0.1,-13.4 -2.5,-26.2 -7.2,-37.9zm-379.4,113.8c-40.9,0 -74.1,-33.2 -74.1,-74.1s33.2,-74.1 74.1,-74.1s74.1,33.2 74.1,74.1s-33.3,74.1 -74.1,74.1zm285.6,-1.8c-40.9,0 -74.1,-33.2 -74.1,-74.1s33.3,-74.1 74.1,-74.1s74.1,33.2 74.1,74.1s-33.2,74.1 -74.1,74.1z"/>
  </g>
  <g id="svg_3"/>
  <g id="svg_4"/>
  <g id="svg_5"/>
  <g id="svg_6"/>
  <g id="svg_7"/>
  <g id="svg_8"/>
  <g id="svg_9"/>
  <g id="svg_10"/>
  <g id="svg_11"/>
  <g id="svg_12"/>
  <g id="svg_13"/>
  <g id="svg_14"/>
  <g id="svg_15"/>
  <g id="svg_16"/>
  <g id="svg_17"/>
 </g>
</svg>