<svg width="467.2" height="467.2" xmlns="http://www.w3.org/2000/svg">

 <g>
  <title>background</title>
  <rect fill="none" id="canvas_background" height="402" width="582" y="-1" x="-1"/>
 </g>
 <g>
  <title>Layer 1</title>
  <g id="svg_1">
   <path stroke="#f2f229" fill="#f85e28" id="svg_2" d="m467.2,235.7c0,-62.4 -24.3,-121.1 -68.4,-165.2s-102.8,-68.4 -165.2,-68.4s-121.1,24.3 -165.2,68.4s-68.4,102.8 -68.4,165.2l0,110.6c0,62.5 50.9,113.4 113.4,113.4c7.5,0 13.5,-6 13.5,-13.5l0,-199.7c0,-7.5 -6,-13.5 -13.5,-13.5c-34.6,0 -65.6,15.5 -86.4,40l0,-37.3c0,-113.9 92.7,-206.6 206.6,-206.6s206.6,92.7 206.6,206.6c0,0.9 0.1,1.8 0.3,2.7c-0.2,0.9 -0.3,1.8 -0.3,2.7l0,37.3c-20.8,-24.5 -51.8,-40 -86.4,-40c-7.5,0 -13.5,6 -13.5,13.5l0,199.7c0,7.5 6,13.5 13.5,13.5c62.5,0 113.4,-50.9 113.4,-113.4l0,-110.6c0,-0.9 -0.1,-1.8 -0.3,-2.7c0.2,-0.9 0.3,-1.8 0.3,-2.7zm-367.4,25.3l0,170.6c-41.2,-6.5 -72.9,-42.3 -72.9,-85.3c0.1,-43 31.7,-78.8 72.9,-85.3zm267.6,176l0,-170.6c41.2,6.5 72.9,42.3 72.9,85.3c-0.1,43.1 -31.7,78.8 -72.9,85.3z"/>
  </g>
  <g id="svg_3"/>
  <g id="svg_4"/>
  <g id="svg_5"/>
  <g id="svg_6"/>
  <g id="svg_7"/>
  <g id="svg_8"/>
  <g id="svg_9"/>
  <g id="svg_10"/>
  <g id="svg_11"/>
  <g id="svg_12"/>
  <g id="svg_13"/>
  <g id="svg_14"/>
  <g id="svg_15"/>
  <g id="svg_16"/>
  <g id="svg_17"/>
 </g>
</svg>