<svg width="476.3" height="476.3" xmlns="http://www.w3.org/2000/svg">

 <g>
  <title>background</title>
  <rect fill="none" id="canvas_background" height="402" width="582" y="-1" x="-1"/>
 </g>
 <g>
  <title>Layer 1</title>
  <g id="svg_1">
   <g id="svg_2">
    <path stroke="#f2f229" fill="#f85e28" id="svg_3" d="m411.75,250.2l-185.6,0l0,-185.6c0,-7.5 -6,-13.5 -13.5,-13.5c-117.2,0 -212.6,95.4 -212.6,212.6s95.4,212.6 212.6,212.6s212.6,-95.4 212.6,-212.6c0,-7.4 -6.1,-13.5 -13.5,-13.5zm-199.1,199.1c-102.3,0 -185.6,-83.3 -185.6,-185.6c0,-97.8 76,-178.2 172.1,-185.1l0,185.1c0,7.5 6,13.5 13.5,13.5l185.1,0c-6.9,96.1 -87.3,172.1 -185.1,172.1z"/>
    <path stroke="#f2f229" fill="#f85e28" id="svg_4" d="m476.25,211.9c-0.2,-51.6 -19.1,-101.3 -53.2,-140c-40.4,-45.7 -98.4,-71.9 -159.4,-71.9c-7.5,0 -13.5,6 -13.5,13.5l0,199.1c0,7.5 6,13.5 13.5,13.5l199.1,0l0,0c7.5,0 13.5,-6 13.5,-13.5c0,-0.2 0,-0.4 0,-0.7zm-199.1,-12.7l0,-171.6c48.2,3.5 93.4,25.8 125.6,62.3c27,30.5 43,68.9 46,109.3l-171.6,0z"/>
   </g>
  </g>
  <g id="svg_5"/>
  <g id="svg_6"/>
  <g id="svg_7"/>
  <g id="svg_8"/>
  <g id="svg_9"/>
  <g id="svg_10"/>
  <g id="svg_11"/>
  <g id="svg_12"/>
  <g id="svg_13"/>
  <g id="svg_14"/>
  <g id="svg_15"/>
  <g id="svg_16"/>
  <g id="svg_17"/>
  <g id="svg_18"/>
  <g id="svg_19"/>
 </g>
</svg>