<svg width="477" height="477" xmlns="http://www.w3.org/2000/svg">

 <g>
  <title>background</title>
  <rect fill="none" id="canvas_background" height="402" width="582" y="-1" x="-1"/>
 </g>
 <g>
  <title>Layer 1</title>
  <g id="svg_1">
   <g id="svg_2">
    <path stroke="#f2f229" fill="#f85e28" id="svg_3" d="m238.4,0c-105.4,0 -191.2,85.8 -191.2,191.2c0,12 1.1,24.1 3.4,35.9c0.1,0.7 0.5,2.8 1.3,6.4c2.9,12.9 7.2,25.6 12.8,37.7c20.6,48.5 65.9,123 165.3,202.8c2.5,2 5.5,3 8.5,3s6,-1 8.5,-3c99.3,-79.8 144.7,-154.3 165.3,-202.8c5.6,-12.1 9.9,-24.7 12.8,-37.7c0.8,-3.6 1.2,-5.7 1.3,-6.4c2.2,-11.8 3.4,-23.9 3.4,-35.9c-0.2,-105.4 -86,-191.2 -191.4,-191.2zm161.2,222.4c0,0.2 -0.1,0.4 -0.1,0.6c-0.1,0.5 -0.4,2 -0.9,4.3c0,0.1 0,0.1 0,0.2c-2.5,11.2 -6.2,22.1 -11.1,32.6c-0.1,0.1 -0.1,0.3 -0.2,0.4c-18.7,44.3 -59.7,111.9 -148.9,185.6c-89.2,-73.7 -130.2,-141.3 -148.9,-185.6c-0.1,-0.1 -0.1,-0.3 -0.2,-0.4c-4.8,-10.4 -8.5,-21.4 -11.1,-32.6c0,-0.1 0,-0.1 0,-0.2c-0.6,-2.3 -0.8,-3.8 -0.9,-4.3c0,-0.2 -0.1,-0.4 -0.1,-0.7c-2,-10.3 -3,-20.7 -3,-31.2c0,-90.5 73.7,-164.2 164.2,-164.2s164.2,73.7 164.2,164.2c0,10.6 -1,21.1 -3,31.3z"/>
    <path stroke="#f2f229" fill="#f85e28" id="svg_4" d="m238.4,71.9c-66.9,0 -121.4,54.5 -121.4,121.4s54.5,121.4 121.4,121.4s121.4,-54.5 121.4,-121.4s-54.5,-121.4 -121.4,-121.4zm0,215.8c-52.1,0 -94.4,-42.4 -94.4,-94.4s42.4,-94.4 94.4,-94.4s94.4,42.4 94.4,94.4s-42.3,94.4 -94.4,94.4z"/>
   </g>
  </g>
  <g id="svg_5"/>
  <g id="svg_6"/>
  <g id="svg_7"/>
  <g id="svg_8"/>
  <g id="svg_9"/>
  <g id="svg_10"/>
  <g id="svg_11"/>
  <g id="svg_12"/>
  <g id="svg_13"/>
  <g id="svg_14"/>
  <g id="svg_15"/>
  <g id="svg_16"/>
  <g id="svg_17"/>
  <g id="svg_18"/>
  <g id="svg_19"/>
 </g>
</svg>