<svg width="471.475" height="471.475" xmlns="http://www.w3.org/2000/svg">

 <g>
  <title>background</title>
  <rect fill="none" id="canvas_background" height="402" width="582" y="-1" x="-1"/>
 </g>
 <g>
  <title>Layer 1</title>
  <g id="svg_1">
   <g id="svg_2">
    <path stroke="#f2f229" fill="#f85e28" id="svg_3" d="m180.25,329.875c-6,-4.5 -14.4,-3.3 -18.9,2.7c-22.5,29.8 -56.8,46.9 -94.1,46.9l-37.2,0c-7.5,0 -13.5,6 -13.5,13.5s6,13.5 13.5,13.5l37.3,0c23.1,0 45.2,-5.3 65.6,-15.7c19.5,-9.9 36.8,-24.4 50,-42c4.4,-5.9 3.3,-14.4 -2.7,-18.9z"/>
    <path stroke="#f2f229" fill="#f85e28" id="svg_4" d="m218.35,140.075c2.5,1.9 5.4,2.8 8.3,2.8c4,0 8,-1.8 10.7,-5.2c22.5,-29 56.4,-45.6 93,-45.6l78.5,0l-41.9,41.9c-5.3,5.3 -5.3,13.8 0,19.1c2.6,2.6 6.1,4 9.5,4s6.9,-1.3 9.5,-4l65,-65c5.3,-5.3 5.3,-13.8 0,-19.1l-65,-65c-5.3,-5.3 -13.8,-5.3 -19.1,0c-5.3,5.3 -5.3,13.8 0,19.1l41.9,41.9l-78.5,0c-45,0 -86.7,20.4 -114.4,56.1c-4.4,6 -3.4,14.4 2.5,19z"/>
    <path stroke="#f2f229" fill="#f85e28" id="svg_5" d="m386.05,318.475c-5.3,-5.3 -13.8,-5.3 -19.1,0c-5.3,5.3 -5.3,13.8 0,19.1l41.9,41.9l-78.5,0c-64.9,0 -117.7,-52.8 -117.7,-117.7l0,-52c0,-79.8 -64.9,-144.7 -144.7,-144.7l-37.3,0c-7.5,0 -13.5,6 -13.5,13.5s6,13.5 13.5,13.5l37.3,0c64.9,0 117.7,52.8 117.7,117.7l0,52c0,79.8 64.9,144.7 144.7,144.7l78.5,0l-41.9,41.9c-5.3,5.3 -5.3,13.8 0,19.1c2.6,2.6 6.1,4 9.5,4s6.9,-1.3 9.5,-4l65,-65c5.3,-5.3 5.3,-13.8 0,-19.1l-64.9,-64.9z"/>
   </g>
  </g>
  <g id="svg_6"/>
  <g id="svg_7"/>
  <g id="svg_8"/>
  <g id="svg_9"/>
  <g id="svg_10"/>
  <g id="svg_11"/>
  <g id="svg_12"/>
  <g id="svg_13"/>
  <g id="svg_14"/>
  <g id="svg_15"/>
  <g id="svg_16"/>
  <g id="svg_17"/>
  <g id="svg_18"/>
  <g id="svg_19"/>
  <g id="svg_20"/>
 </g>
</svg>