<svg width="487.222" height="487.222" xmlns="http://www.w3.org/2000/svg">

 <g>
  <title>background</title>
  <rect fill="none" id="canvas_background" height="402" width="582" y="-1" x="-1"/>
 </g>
 <g>
  <title>Layer 1</title>
  <g id="svg_1">
   <path stroke="#f2f229" fill="#f85e28" id="svg_2" d="m486.554,186.811c-1.6,-4.9 -5.8,-8.4 -10.9,-9.2l-152,-21.6l-68.4,-137.5c-2.3,-4.6 -7,-7.5 -12.1,-7.5l0,0c-5.1,0 -9.8,2.9 -12.1,7.6l-67.5,137.9l-152,22.6c-5.1,0.8 -9.3,4.3 -10.9,9.2s-0.2,10.3 3.5,13.8l110.3,106.9l-25.5,151.4c-0.9,5.1 1.2,10.2 5.4,13.2c2.3,1.7 5.1,2.6 7.9,2.6c2.2,0 4.3,-0.5 6.3,-1.6l135.7,-71.9l136.1,71.1c2,1 4.1,1.5 6.2,1.5l0,0c7.4,0 13.5,-6.1 13.5,-13.5c0,-1.1 -0.1,-2.1 -0.4,-3.1l-26.3,-150.5l109.6,-107.5c3.9,-3.6 5.2,-9 3.6,-13.9zm-137,107.1c-3.2,3.1 -4.6,7.6 -3.8,12l22.9,131.3l-118.2,-61.7c-3.9,-2.1 -8.6,-2 -12.6,0l-117.8,62.4l22.1,-131.5c0.7,-4.4 -0.7,-8.8 -3.9,-11.9l-95.6,-92.8l131.9,-19.6c4.4,-0.7 8.2,-3.4 10.1,-7.4l58.6,-119.7l59.4,119.4c2,4 5.8,6.7 10.2,7.4l132,18.8l-95.3,93.3z"/>
  </g>
  <g id="svg_3"/>
  <g id="svg_4"/>
  <g id="svg_5"/>
  <g id="svg_6"/>
  <g id="svg_7"/>
  <g id="svg_8"/>
  <g id="svg_9"/>
  <g id="svg_10"/>
  <g id="svg_11"/>
  <g id="svg_12"/>
  <g id="svg_13"/>
  <g id="svg_14"/>
  <g id="svg_15"/>
  <g id="svg_16"/>
  <g id="svg_17"/>
 </g>
</svg>